<?xml version="1.0" encoding="UTF-8"?>
<svg xmlns="http://www.w3.org/2000/svg" xmlns:xlink="http://www.w3.org/1999/xlink" width="50pt" height="69pt" viewBox="0 0 50 69" version="1.1">
<g id="surface1">
<path style=" stroke:none;fill-rule:evenodd;fill:rgb(82.745098%,21.960784%,20%);fill-opacity:1;" d="M 49.148438 33.265625 C 49.148438 46.929688 38.3125 58.007812 24.949219 58.007812 C 11.585938 58.007812 0.75 46.929688 0.75 33.265625 C 0.75 19.601562 11.585938 8.523438 24.949219 8.523438 C 38.3125 8.523438 49.148438 19.601562 49.148438 33.265625 "/>
<path style=" stroke:none;fill-rule:nonzero;fill:rgb(93.72549%,23.921569%,22.745098%);fill-opacity:1;" d="M 1.738281 39.394531 C 1.738281 39.394531 -0.015625 13.59375 23.769531 12.855469 L 22.109375 10.089844 L 9.203125 14.421875 L 5.515625 18.660156 L 2.292969 24.835938 L 0.445312 32.023438 L 1 36.8125 "/>
<path style=" stroke:none;fill-rule:nonzero;fill:rgb(13.72549%,12.156863%,12.54902%);fill-opacity:1;" d="M 8.375 16.386719 C 4.128906 20.730469 1.503906 26.726562 1.503906 33.359375 C 1.503906 39.988281 4.128906 45.984375 8.375 50.328125 C 12.625 54.667969 18.476562 57.347656 24.949219 57.347656 C 31.421875 57.347656 37.277344 54.667969 41.523438 50.328125 C 45.769531 45.984375 48.394531 39.988281 48.394531 33.359375 C 48.394531 26.726562 45.769531 20.730469 41.523438 16.386719 C 37.277344 12.046875 31.421875 9.367188 24.949219 9.367188 C 18.476562 9.367188 12.625 12.046875 8.375 16.386719 Z M 7.300781 51.378906 C 2.789062 46.765625 0 40.390625 0 33.359375 C 0 26.324219 2.789062 19.949219 7.300781 15.339844 C 11.8125 10.722656 18.058594 7.863281 24.949219 7.867188 C 31.84375 7.863281 38.085938 10.722656 42.597656 15.339844 C 47.109375 19.949219 49.898438 26.324219 49.898438 33.359375 C 49.898438 40.390625 47.109375 46.765625 42.597656 51.378906 C 38.085938 55.992188 31.84375 58.851562 24.949219 58.851562 C 18.058594 58.851562 11.8125 55.992188 7.300781 51.378906 "/>
<path style=" stroke:none;fill-rule:evenodd;fill:rgb(94.117647%,83.921569%,71.764706%);fill-opacity:1;" d="M 35.136719 33.402344 L 31.449219 33.957031 L 26.46875 34.507812 L 23.242188 34.601562 L 20.109375 34.507812 L 17.710938 33.773438 L 15.59375 31.46875 L 13.933594 26.769531 L 13.566406 25.753906 L 11.351562 25.019531 L 10.0625 22.898438 L 9.140625 19.855469 L 10.152344 17.183594 L 12.550781 16.355469 L 14.488281 17.277344 L 15.410156 19.304688 L 16.515625 19.121094 L 16.882812 18.660156 L 16.515625 16.539062 L 16.421875 13.867188 L 16.976562 10.183594 L 16.953125 8.078125 L 18.632812 5.390625 L 21.585938 3.269531 L 26.746094 1.058594 L 32.460938 1.886719 L 37.441406 5.480469 L 39.746094 9.167969 L 41.21875 11.839844 L 41.589844 18.476562 L 40.480469 24.1875 L 38.453125 29.257812 L 36.519531 31.929688 "/>
<path style=" stroke:none;fill-rule:evenodd;fill:rgb(20%,31.372549%,38.039216%);fill-opacity:1;" d="M 32 49.34375 L 18.820312 49.898438 L 18.820312 52.109375 L 19.925781 59.847656 L 19.371094 60.496094 L 10.152344 57.359375 L 9.507812 56.253906 L 8.585938 45.84375 L 6.46875 39.578125 L 6.003906 38.101562 L 13.378906 33.035156 L 15.683594 32.113281 L 17.710938 34.601562 L 19.464844 36.167969 L 21.492188 36.8125 L 22.414062 37.089844 L 23.519531 41.878906 L 24.351562 42.894531 L 26.46875 42.15625 L 24.996094 45.011719 L 33.015625 48.792969 L 32 49.34375 "/>
<path style=" stroke:none;fill-rule:evenodd;fill:rgb(42.745098%,41.960784%,42.745098%);fill-opacity:1;" d="M 10.152344 17.183594 L 12.550781 16.355469 L 14.488281 17.277344 L 15.410156 19.304688 L 16.515625 19.121094 L 16.792969 18.015625 L 16.238281 15.894531 L 16.792969 10.828125 L 16.332031 8.0625 L 17.988281 6.128906 L 21.585938 3.269531 L 20.570312 1.886719 L 15.5 4.375 L 13.378906 6.035156 L 12.183594 8.617188 L 10.339844 11.101562 L 9.785156 14.050781 L 10.152344 17.183594 "/>
<path style=" stroke:none;fill-rule:evenodd;fill:rgb(86.27451%,85.098039%,84.705882%);fill-opacity:1;" d="M 13.933594 8.523438 C 13.933594 8.523438 15.316406 5.113281 20.847656 3.457031 C 26.378906 1.796875 21.125 2.257812 21.125 2.257812 L 15.132812 4.5625 L 12.828125 6.863281 L 11.8125 8.707031 L 13.933594 8.523438 "/>
<path style=" stroke:none;fill-rule:evenodd;fill:rgb(86.27451%,85.098039%,84.705882%);fill-opacity:1;" d="M 11.167969 16.539062 C 11.167969 16.539062 9.230469 10.089844 16.605469 9.167969 L 16.332031 8.0625 L 11.261719 9.261719 L 9.785156 14.050781 L 10.152344 17.183594 L 11.167969 16.539062 "/>
<path style=" stroke:none;fill-rule:evenodd;fill:rgb(96.862745%,89.411765%,80.392157%);fill-opacity:1;" d="M 14.117188 25.109375 L 15.324219 23.941406 C 15.324219 23.941406 15.871094 24.003906 15.960938 24.648438 C 16.054688 25.292969 16.332031 31.097656 20.292969 34.234375 C 20.65625 34.519531 17.34375 33.773438 17.34375 33.773438 L 14.394531 29.164062 "/>
<path style=" stroke:none;fill-rule:evenodd;fill:rgb(96.862745%,89.411765%,80.392157%);fill-opacity:1;" d="M 31.078125 23.359375 C 31.078125 23.359375 31.292969 20.566406 32.046875 20.78125 C 32.800781 20.996094 32.800781 21.746094 32.800781 21.746094 C 32.800781 21.746094 30.972656 22.929688 31.078125 23.359375 "/>
<path style=" stroke:none;fill-rule:nonzero;fill:rgb(96.862745%,89.411765%,80.392157%);fill-opacity:1;" d="M 38.730469 13.128906 C 38.730469 13.128906 37.210938 13.453125 37.070312 14.789062 C 36.929688 16.128906 38.730469 15.066406 39.007812 14.972656 "/>
<path style=" stroke:none;fill-rule:nonzero;fill:rgb(96.862745%,89.411765%,80.392157%);fill-opacity:1;" d="M 27.578125 13.222656 C 27.578125 13.222656 25.546875 13.5 25.546875 14.789062 C 25.546875 16.078125 27.851562 15.988281 28.5 15.433594 "/>
<path style=" stroke:none;fill-rule:evenodd;fill:rgb(96.862745%,89.411765%,80.392157%);fill-opacity:1;" d="M 15.039062 19.210938 C 15.039062 19.210938 11.535156 17.09375 11.167969 19.121094 C 10.800781 21.148438 9.96875 22.621094 11.722656 24.742188 L 10.523438 24.371094 L 9.417969 21.515625 L 9.046875 18.75 L 11.167969 16.539062 L 13.566406 16.722656 L 14.949219 17.832031 L 15.039062 19.210938 "/>
<path style=" stroke:none;fill-rule:evenodd;fill:rgb(96.862745%,89.411765%,80.392157%);fill-opacity:1;" d="M 16.699219 13.40625 C 16.699219 13.40625 18.265625 5.296875 26.195312 3.730469 C 32.71875 2.441406 36.148438 4.007812 37.441406 5.480469 C 37.441406 5.480469 31.632812 -1.429688 26.101562 0.691406 C 20.570312 2.808594 16.515625 6.679688 16.605469 9.167969 C 16.761719 13.40625 16.699219 13.40625 16.699219 13.40625 "/>
<path style=" stroke:none;fill-rule:evenodd;fill:rgb(96.862745%,89.411765%,80.392157%);fill-opacity:1;" d="M 38.085938 6.402344 C 38.085938 6.402344 35.414062 6.3125 35.320312 8.707031 C 35.320312 8.707031 35.320312 9.074219 35.503906 9.445312 C 35.503906 9.445312 37.625 7.046875 38.914062 8.339844 "/>
<path style=" stroke:none;fill-rule:evenodd;fill:rgb(96.862745%,89.411765%,80.392157%);fill-opacity:1;" d="M 26.378906 9.695312 C 26.378906 9.695312 25.917969 6.015625 22.78125 8.15625 C 20.753906 9.535156 20.9375 11.472656 21.308594 11.839844 C 21.675781 12.210938 21.578125 12.953125 21.855469 12.441406 C 22.136719 11.933594 22.046875 10.273438 23.058594 9.8125 C 24.074219 9.351562 25.734375 8.835938 26.378906 9.695312 "/>
<path style=" stroke:none;fill-rule:evenodd;fill:rgb(28.627451%,44.705882%,54.509804%);fill-opacity:1;" d="M 17.710938 34.601562 L 9.046875 38.472656 C 9.046875 38.472656 12.644531 52.753906 10.800781 57.175781 L 9.507812 56.714844 L 9.417969 51.28125 L 7.019531 40.960938 L 6.003906 38.101562 L 15.039062 32.019531 L 17.710938 34.601562 "/>
<path style=" stroke:none;fill-rule:evenodd;fill:rgb(28.627451%,44.705882%,54.509804%);fill-opacity:1;" d="M 18.605469 42.5 L 19.832031 44 L 19.832031 49.527344 L 18.359375 49.527344 C 18.359375 49.527344 18.175781 45.660156 18.175781 45.199219 C 18.175781 44.738281 18.359375 43.078125 18.359375 43.078125 "/>
<path style=" stroke:none;fill-rule:evenodd;fill:rgb(28.627451%,44.705882%,54.509804%);fill-opacity:1;" d="M 18.632812 50.359375 L 14.488281 50.542969 L 15.683594 51.371094 L 18.632812 51.832031 "/>
<path style=" stroke:none;fill-rule:evenodd;fill:rgb(20%,31.372549%,38.039216%);fill-opacity:1;" d="M 32.832031 49.4375 L 36.242188 49.34375 L 37.070312 57.824219 L 33.566406 58.28125 L 32.832031 49.4375 "/>
<path style=" stroke:none;fill-rule:evenodd;fill:rgb(20%,31.372549%,38.039216%);fill-opacity:1;" d="M 33.753906 49.4375 L 38.914062 49.160156 C 38.914062 49.160156 41.035156 43.816406 41.035156 43.539062 C 41.035156 43.261719 42.878906 35.800781 42.878906 35.800781 L 38.730469 31.46875 L 37.902344 30.730469 L 35.6875 32.941406 L 35.6875 41.511719 L 33.753906 49.4375 "/>
<path style=" stroke:none;fill-rule:evenodd;fill:rgb(28.627451%,44.705882%,54.509804%);fill-opacity:1;" d="M 36.058594 48.792969 L 32.832031 49.4375 L 33.292969 52.015625 C 34.488281 52.570312 36.519531 51.09375 36.519531 51.09375 "/>
<path style=" stroke:none;fill-rule:evenodd;fill:rgb(28.627451%,44.705882%,54.509804%);fill-opacity:1;" d="M 36.148438 32.667969 L 42.601562 37.457031 L 42.785156 35.246094 L 37.902344 30.730469 L 36.148438 32.667969 "/>
<path style=" stroke:none;fill-rule:evenodd;fill:rgb(100%,100%,100%);fill-opacity:1;" d="M 21.832031 67.589844 L 19.925781 59.847656 L 18.976562 54.136719 L 18.820312 49.898438 L 27.457031 49.4375 L 32.832031 49.4375 L 32.34375 59.113281 L 33.171875 66.578125 L 33.078125 67.960938 L 26.074219 68.511719 L 21.832031 67.589844 "/>
<path style=" stroke:none;fill-rule:evenodd;fill:rgb(86.27451%,85.098039%,84.705882%);fill-opacity:1;" d="M 31.632812 49.34375 C 31.632812 49.34375 31.171875 58.929688 32.554688 65.746094 C 32.554688 65.746094 29.789062 67.496094 25.734375 67.957031 L 33.476562 67.683594 L 34.398438 67.128906 L 33.292969 52.015625 L 33.015625 48.792969 "/>
<path style=" stroke:none;fill-rule:evenodd;fill:rgb(100%,100%,100%);fill-opacity:1;" d="M 37.226562 57.085938 L 40.824219 56.070312 L 47.644531 55.703125 L 48.660156 52.570312 L 46.816406 47.132812 L 44.695312 46.859375 L 41.746094 47.777344 L 38.914062 49.160156 L 37.414062 48.882812 L 36.242188 49.34375 "/>
<path style=" stroke:none;fill-rule:evenodd;fill:rgb(86.27451%,85.098039%,84.705882%);fill-opacity:1;" d="M 37.164062 55.242188 C 37.164062 55.242188 39.558594 54.136719 39.929688 54.230469 L 38.914062 49.160156 L 40.113281 48.699219 C 40.113281 48.699219 40.941406 53.492188 40.941406 54.042969 C 40.941406 54.042969 46.105469 54.320312 46.566406 54.320312 C 46.566406 54.320312 47.671875 52.199219 47.394531 49.988281 L 48.410156 52.9375 L 48.5 54.597656 L 47.027344 56.808594 L 45.367188 57.175781 L 42.601562 57.085938 L 41.679688 55.886719 L 38.453125 56.347656 L 37.441406 56.714844 "/>
<path style=" stroke:none;fill-rule:nonzero;fill:rgb(100%,100%,100%);fill-opacity:1;" d="M 33.539062 48.699219 L 31.511719 43.539062 L 29.394531 40.5 C 29.394531 40.5 29.851562 39.210938 30.5 39.210938 C 31.144531 39.210938 32.621094 39.210938 32.621094 39.210938 L 34.648438 39.945312 L 34.464844 43.355469 L 33.539062 48.699219 "/>
<path style=" stroke:none;fill-rule:evenodd;fill:rgb(86.27451%,85.098039%,84.705882%);fill-opacity:1;" d="M 33.9375 46.949219 C 33.9375 46.949219 31.355469 41.972656 31.355469 41.234375 C 31.355469 41.234375 31.816406 40.128906 32.460938 40.40625 C 33.109375 40.683594 34.492188 41.417969 34.492188 41.417969 L 34.492188 39.667969 L 31.355469 39.023438 L 29.234375 39.300781 L 32.832031 47.777344 L 33.566406 47.871094 "/>
<path style=" stroke:none;fill-rule:nonzero;fill:rgb(100%,100%,100%);fill-opacity:1;" d="M 22.664062 34.785156 L 20.109375 34.507812 L 17.710938 33.773438 L 17.710938 34.601562 L 18.882812 35.890625 L 22.570312 37.550781 "/>
<path style=" stroke:none;fill-rule:evenodd;fill:rgb(86.27451%,85.098039%,84.705882%);fill-opacity:1;" d="M 18.542969 35.0625 C 18.542969 35.0625 21.402344 36.261719 22.324219 35.984375 L 22.414062 37.089844 L 19.832031 36.535156 L 18.265625 35.429688 L 18.542969 35.0625 "/>
<path style=" stroke:none;fill-rule:evenodd;fill:rgb(82.745098%,21.960784%,20%);fill-opacity:1;" d="M 37.21875 39.523438 C 35.65625 39.476562 34.242188 39.292969 33.003906 38.941406 C 33.089844 38.433594 32.929688 37.9375 33.058594 37.574219 C 33.402344 37.324219 33.980469 37.328125 34.5 37.269531 C 34.050781 37.046875 33.417969 36.960938 32.898438 37.089844 C 32.882812 36.738281 32.726562 36.519531 32.632812 36.242188 C 33.511719 35.929688 35.585938 33.871094 36.753906 34.554688 C 37.3125 34.878906 37.546875 36.726562 37.589844 37.628906 C 37.625 38.375 37.523438 39.128906 37.21875 39.523438 "/>
<path style="fill:none;stroke-width:2;stroke-linecap:butt;stroke-linejoin:miter;stroke:rgb(82.745098%,21.960784%,20%);stroke-opacity:1;stroke-miterlimit:4;" d="M 134.583 106.628261 C 128.933 106.797826 123.81975 107.461957 119.342125 108.733696 C 119.652875 110.570652 119.07375 112.365217 119.539875 113.679348 C 120.782875 114.583696 122.873375 114.569565 124.752 114.781522 C 123.127625 115.586957 120.839375 115.897826 118.96075 115.431522 C 118.90425 116.703261 118.33925 117.494565 118.00025 118.497826 C 121.178375 119.628261 128.67875 127.075 132.902125 124.602174 C 134.922 123.429348 135.7695 116.745652 135.924875 113.481522 C 136.052 110.782609 135.68475 108.055435 134.583 106.628261 Z M 134.583 106.628261 " transform="matrix(0.276549,0,0,-0.276442,0,69)"/>
<path style=" stroke:none;fill-rule:evenodd;fill:rgb(82.745098%,21.960784%,20%);fill-opacity:1;" d="M 29.738281 36.96875 C 29.734375 37.085938 29.730469 37.203125 29.726562 37.324219 C 29.238281 37.644531 28.449219 37.640625 27.910156 37.910156 C 28.703125 37.945312 29.324219 38.136719 29.863281 38.402344 C 29.851562 38.699219 29.839844 39 29.828125 39.296875 C 28.933594 39.910156 28.113281 40.820312 27.058594 41.394531 C 26.5625 41.667969 24.8125 42.367188 24.28125 42.242188 C 23.984375 42.171875 23.957031 41.800781 23.835938 41.449219 C 23.582031 40.699219 22.992188 39.503906 22.941406 38.375 C 22.875 36.945312 22.730469 34.550781 24.269531 34.847656 C 25.511719 35.082031 26.957031 35.65625 27.917969 36.179688 C 28.507812 36.5 28.847656 36.898438 29.738281 36.96875 "/>
<path style="fill:none;stroke-width:2;stroke-linecap:butt;stroke-linejoin:miter;stroke:rgb(82.745098%,21.960784%,20%);stroke-opacity:1;stroke-miterlimit:4;" d="M 107.533625 115.869565 C 107.5195 115.445652 107.505375 115.021739 107.49125 114.583696 C 105.725625 113.425 102.872375 113.43913 100.923125 112.46413 C 103.7905 112.336957 106.036375 111.644565 107.985625 110.683696 C 107.94325 109.609783 107.900875 108.521739 107.8585 107.447826 C 104.623875 105.229348 101.657625 101.936957 97.843875 99.859783 C 96.05 98.870652 89.722 96.341304 87.801 96.793478 C 86.7275 97.047826 86.628625 98.390217 86.19075 99.661957 C 85.272625 102.375 83.13975 106.698913 82.956125 110.782609 C 82.716 115.954348 82.193375 124.616304 87.758625 123.542391 C 92.250375 122.694565 97.476625 120.617391 100.951375 118.723913 C 103.08425 117.565217 104.313125 116.123913 107.533625 115.869565 Z M 107.533625 115.869565 " transform="matrix(0.276549,0,0,-0.276442,0,69)"/>
<path style=" stroke:none;fill-rule:evenodd;fill:rgb(82.745098%,21.960784%,20%);fill-opacity:1;" d="M 30.628906 38.671875 C 30.492188 37.894531 30.332031 37.671875 30.394531 36.992188 C 32.46875 35.609375 32.859375 39.367188 30.628906 38.671875 "/>
<path style="fill:none;stroke-width:2;stroke-linecap:butt;stroke-linejoin:miter;stroke:rgb(82.745098%,21.960784%,20%);stroke-opacity:1;stroke-miterlimit:4;" d="M 110.754125 109.708696 C 110.25975 112.520652 109.680625 113.326087 109.906625 115.784783 C 117.407 120.786957 118.8195 107.193478 110.754125 109.708696 Z M 110.754125 109.708696 " transform="matrix(0.276549,0,0,-0.276442,0,69)"/>
<path style=" stroke:none;fill-rule:evenodd;fill:rgb(93.72549%,23.921569%,22.745098%);fill-opacity:1;" d="M 33.632812 39.300781 C 33.632812 39.300781 32.988281 38.378906 33.449219 38.101562 C 33.910156 37.828125 34.371094 38.105469 34.648438 37.644531 C 34.921875 37.183594 34.648438 36.90625 34.738281 36.351562 C 34.832031 35.800781 35.292969 35.707031 35.753906 35.617188 C 36.214844 35.523438 37.503906 35.339844 37.6875 35.800781 L 37.136719 34.140625 L 36.03125 33.773438 L 32.527344 35.800781 L 32.34375 36.8125 L 32.34375 38.839844 "/>
<path style=" stroke:none;fill-rule:evenodd;fill:rgb(93.72549%,23.921569%,22.745098%);fill-opacity:1;" d="M 23.953125 42.34375 C 23.84375 40.90625 23.726562 39.46875 23.59375 38.03125 C 23.402344 35.886719 24.109375 36.261719 25.972656 36.261719 C 26.253906 36.261719 27.71875 36.597656 27.824219 36.8125 C 28.328125 37.839844 26.984375 37.613281 28.40625 38.386719 C 29.601562 39.039062 31.71875 37.988281 31.234375 36.535156 C 30.964844 36.214844 29.824219 36.4375 29.414062 36.222656 C 28.695312 35.851562 27.976562 35.476562 27.253906 35.105469 C 26.339844 34.628906 24.21875 33.9375 23.242188 34.601562 C 20.769531 36.285156 23.398438 40.488281 24.28125 42.242188 "/>
<path style=" stroke:none;fill-rule:evenodd;fill:rgb(13.72549%,12.156863%,12.54902%);fill-opacity:1;" d="M 26.378906 9.695312 C 23.867188 9.109375 22.617188 10.746094 21.855469 12.441406 C 21.175781 12.277344 21.449219 11.351562 21.621094 10.882812 C 22.070312 9.644531 23.882812 8 25.363281 8.222656 C 26 8.320312 26.863281 8.902344 26.378906 9.695312 "/>
<path style=" stroke:none;fill-rule:evenodd;fill:rgb(13.72549%,12.156863%,12.54902%);fill-opacity:1;" d="M 38.621094 12.554688 C 38.660156 12.554688 38.699219 12.558594 38.742188 12.558594 C 39.308594 13.738281 39.800781 14.988281 40.515625 16.027344 C 40.035156 17.144531 36.882812 18.132812 36.929688 16.128906 C 37.613281 15.828125 38.789062 16.066406 39.394531 15.6875 C 39.046875 14.726562 38.542969 13.910156 38.621094 12.554688 "/>
<path style=" stroke:none;fill-rule:evenodd;fill:rgb(13.72549%,12.156863%,12.54902%);fill-opacity:1;" d="M 27.664062 12.585938 C 28.203125 13.570312 28.378906 14.609375 29.144531 15.355469 C 29.492188 15.691406 30.160156 16.101562 29.828125 17.035156 C 29.75 17.253906 29.183594 17.746094 28.855469 17.84375 C 27.660156 18.195312 24.867188 17.914062 25.8125 16.425781 C 26.804688 16.46875 28.132812 17.066406 28.875 16.347656 C 28.304688 15.441406 27.292969 13.644531 27.664062 12.585938 "/>
<path style=" stroke:none;fill-rule:evenodd;fill:rgb(13.72549%,12.156863%,12.54902%);fill-opacity:1;" d="M 38.171875 22.617188 C 36.371094 23.777344 34.359375 25.035156 31.40625 24.742188 C 30.773438 24.195312 30.535156 22.972656 31.148438 22.167969 C 31.464844 22.714844 31.265625 23.722656 32.15625 23.875 C 33.832031 24.164062 35.78125 22.851562 36.988281 22.394531 C 37.734375 21.132812 36.921875 20.671875 36.25 19.859375 C 34.871094 18.199219 33.023438 16.140625 33.089844 13.652344 C 33.644531 13.25 33.695312 14.269531 33.773438 14.453125 C 34.492188 16.140625 36.304688 18.292969 37.628906 19.734375 C 37.953125 20.089844 38.488281 20.429688 38.546875 20.664062 C 38.71875 21.347656 38.101562 22.164062 38.171875 22.617188 "/>
<path style=" stroke:none;fill-rule:evenodd;fill:rgb(13.72549%,12.156863%,12.54902%);fill-opacity:1;" d="M 14.410156 21.398438 C 13.84375 21.078125 13.710938 19.65625 13.046875 19.617188 C 12.097656 19.558594 12.269531 21.460938 12.273438 22.570312 C 11.621094 21.976562 11.507812 20.15625 11.988281 19.21875 C 11.441406 18.949219 11.195312 19.515625 10.894531 19.710938 C 11.28125 16.886719 15.03125 18.402344 14.410156 21.398438 "/>
<path style=" stroke:none;fill-rule:evenodd;fill:rgb(13.72549%,12.156863%,12.54902%);fill-opacity:1;" d="M 39.320312 23.796875 C 38.480469 25.390625 37.292969 27.152344 34.832031 27.203125 C 34.78125 26.6875 34.742188 25.902344 34.835938 25.589844 C 36.714844 25.410156 37.878906 24.453125 39.320312 23.796875 "/>
<path style=" stroke:none;fill-rule:evenodd;fill:rgb(13.72549%,12.156863%,12.54902%);fill-opacity:1;" d="M 27.523438 24.832031 C 29.09375 25.65625 31.980469 25.746094 34.113281 25.683594 C 34.230469 26.148438 34.226562 26.726562 34.230469 27.296875 C 31.488281 27.433594 28.242188 26.753906 27.523438 24.832031 "/>
<path style=" stroke:none;fill-rule:evenodd;fill:rgb(13.72549%,12.156863%,12.54902%);fill-opacity:1;" d="M 27.226562 26.371094 C 28.3125 29.09375 32.042969 28.78125 35.191406 28.707031 C 35.050781 29.058594 34.753906 29.476562 34.378906 29.628906 C 33.371094 30.039062 30.589844 30.351562 29.1875 29.609375 C 28.300781 29.136719 27.730469 28.070312 27.242188 27.445312 C 27.007812 27.144531 25.839844 26.371094 27.226562 26.371094 "/>
<path style=" stroke:none;fill-rule:evenodd;fill:rgb(50.588235%,69.019608%,76.862745%);fill-opacity:1;" d="M 38.039062 41.402344 C 36.765625 43.585938 35.546875 45.828125 34.035156 47.75 C 34.667969 45.886719 34.941406 42.769531 35.035156 40.394531 C 36.363281 39.773438 37.496094 40.53125 38.039062 41.402344 "/>
<path style=" stroke:none;fill-rule:evenodd;fill:rgb(13.72549%,12.156863%,12.54902%);fill-opacity:1;" d="M 44.898438 49.246094 C 43.472656 49.53125 42.46875 50.917969 41.078125 50.828125 C 41.84375 49.75 43.183594 49.296875 44.898438 49.246094 "/>
<path style=" stroke:none;fill-rule:evenodd;fill:rgb(13.72549%,12.156863%,12.54902%);fill-opacity:1;" d="M 45.527344 51.476562 C 44.363281 51.601562 43 51.789062 41.820312 51.691406 C 42.378906 50.839844 44.527344 51.132812 45.527344 51.476562 "/>
<path style=" stroke:none;fill-rule:evenodd;fill:rgb(13.72549%,12.156863%,12.54902%);fill-opacity:1;" d="M 45.929688 53.402344 C 44.625 53.429688 43 53.402344 41.757812 53.300781 C 42.492188 52.511719 45.082031 53.007812 45.929688 53.402344 "/>
<path style=" stroke:none;fill-rule:evenodd;fill:rgb(86.27451%,85.098039%,84.705882%);fill-opacity:1;" d="M 35.582031 58.667969 C 35.769531 60.308594 36.421875 61.96875 36.339844 63.765625 C 35.617188 64.011719 35.199219 64.222656 34.234375 64.222656 C 34.164062 62.695312 33.960938 60.359375 34.019531 58.90625 C 34.496094 58.9375 35.199219 58.566406 35.582031 58.667969 "/>
<path style=" stroke:none;fill-rule:evenodd;fill:rgb(94.117647%,83.921569%,71.764706%);fill-opacity:1;" d="M 33.476562 34.488281 C 32.820312 34.914062 32.257812 35.449219 31.628906 35.90625 C 30.230469 35.976562 29.46875 35.808594 28.441406 35.007812 C 28.460938 34.941406 28.5625 34.972656 28.566406 34.894531 C 30.0625 35.558594 31.964844 34.621094 33.476562 34.488281 "/>
<path style=" stroke:none;fill-rule:evenodd;fill:rgb(50.588235%,69.019608%,76.862745%);fill-opacity:1;" d="M 25.621094 44.679688 C 26.03125 42.902344 27.640625 41.976562 29.105469 40.996094 C 30.613281 42.914062 31.53125 45.375 32.542969 47.753906 C 30.15625 47.03125 27.714844 45.863281 25.621094 44.679688 "/>
<path style=" stroke:none;fill-rule:evenodd;fill:rgb(13.72549%,12.156863%,12.54902%);fill-opacity:1;" d="M 34.019531 58.90625 C 33.960938 60.359375 34.164062 62.695312 34.234375 64.222656 C 35.199219 64.222656 35.617188 64.011719 36.339844 63.765625 C 36.421875 61.96875 35.769531 60.308594 35.582031 58.667969 C 35.199219 58.566406 34.496094 58.9375 34.019531 58.90625 Z M 18.945312 50.625 C 19.582031 56.492188 20.507812 61.425781 22.203125 66.621094 C 25.96875 67.761719 30.507812 67.863281 33.832031 66.832031 C 33.222656 63.898438 33.488281 60.328125 33.132812 57.199219 C 32.863281 54.847656 33 52.480469 32.632812 50.082031 C 28.601562 49.242188 22.902344 49.886719 18.945312 50.625 Z M 33.585938 50.121094 C 33.550781 52.640625 33.699219 55.125 33.890625 57.648438 C 34.859375 57.503906 35.515625 57.40625 36.414062 57.207031 C 36.121094 54.78125 36.15625 52.046875 35.5625 49.898438 C 34.875 49.90625 34.269531 49.890625 33.585938 50.121094 Z M 38.496094 49.714844 C 38.035156 49.609375 37.5 49.710938 37.0625 49.71875 C 37.269531 51.773438 37.769531 54.039062 37.945312 56.195312 C 38.636719 56.214844 39.003906 55.890625 39.574219 55.78125 C 39.601562 53.886719 39.40625 51.28125 38.496094 49.714844 Z M 45.929688 56.503906 C 47.371094 56.152344 48.273438 54.390625 47.871094 52.582031 C 47.601562 51.367188 47.121094 49.074219 46.605469 48.296875 C 46.226562 47.722656 45.191406 46.96875 44.371094 47.496094 C 43.027344 48.351562 40.667969 48.601562 39.691406 49.640625 C 40.179688 51.273438 40.332031 53.511719 40.535156 55.578125 C 42.210938 55.683594 44.269531 55.117188 45.660156 55.71875 C 44.691406 56.03125 43.429688 56.035156 42.589844 56.492188 C 43.273438 56.824219 44.882812 56.757812 45.929688 56.503906 Z M 32.542969 47.753906 C 31.53125 45.375 30.613281 42.914062 29.105469 40.996094 C 27.640625 41.976562 26.03125 42.902344 25.621094 44.679688 C 27.714844 45.863281 30.15625 47.03125 32.542969 47.753906 Z M 35.035156 40.394531 C 34.941406 42.769531 34.667969 45.886719 34.035156 47.75 C 35.546875 45.828125 36.765625 43.585938 38.039062 41.402344 C 37.496094 40.53125 36.363281 39.773438 35.035156 40.394531 Z M 32.210938 39.390625 C 31.636719 39.328125 31.152344 40.046875 30.40625 39.734375 C 30.238281 39.925781 30.082031 40.128906 29.90625 40.3125 C 31.550781 42.292969 32.300781 45.105469 33.570312 47.433594 C 34.253906 45.199219 34.171875 42.746094 34.324219 40.304688 C 33.386719 40.363281 32.867188 39.457031 32.210938 39.390625 Z M 30.394531 36.992188 C 30.332031 37.671875 30.492188 37.894531 30.628906 38.671875 C 32.859375 39.367188 32.46875 35.609375 30.394531 36.992188 Z M 27.917969 36.179688 C 26.957031 35.65625 25.511719 35.082031 24.269531 34.847656 C 22.730469 34.550781 22.875 36.945312 22.941406 38.375 C 22.992188 39.503906 23.582031 40.699219 23.835938 41.449219 C 23.957031 41.800781 23.984375 42.171875 24.28125 42.242188 C 24.8125 42.367188 26.5625 41.667969 27.058594 41.394531 C 28.113281 40.820312 28.933594 39.910156 29.828125 39.296875 C 29.839844 39 29.851562 38.699219 29.863281 38.402344 C 29.324219 38.136719 28.703125 37.945312 27.910156 37.910156 C 28.449219 37.640625 29.238281 37.644531 29.726562 37.324219 C 29.730469 37.203125 29.734375 37.085938 29.738281 36.96875 C 28.847656 36.898438 28.507812 36.5 27.917969 36.179688 Z M 18.734375 34.511719 C 17.9375 35.324219 20.972656 36.425781 21.941406 36.484375 C 21.933594 35.972656 22.230469 35.488281 22.171875 35.121094 C 21.023438 34.921875 19.515625 35.054688 18.734375 34.511719 Z M 28.566406 34.894531 C 28.5625 34.972656 28.460938 34.941406 28.441406 35.007812 C 29.46875 35.808594 30.230469 35.976562 31.628906 35.90625 C 32.257812 35.449219 32.820312 34.914062 33.476562 34.488281 C 31.964844 34.621094 30.0625 35.558594 28.566406 34.894531 Z M 37.589844 37.628906 C 37.546875 36.726562 37.3125 34.878906 36.753906 34.554688 C 35.585938 33.871094 33.511719 35.929688 32.632812 36.242188 C 32.726562 36.519531 32.882812 36.738281 32.898438 37.089844 C 33.417969 36.960938 34.050781 37.046875 34.5 37.269531 C 33.980469 37.328125 33.402344 37.324219 33.058594 37.574219 C 32.929688 37.9375 33.089844 38.433594 33.003906 38.941406 C 34.242188 39.292969 35.65625 39.476562 37.21875 39.523438 C 37.523438 39.128906 37.625 38.375 37.589844 37.628906 Z M 17.390625 35.296875 C 17.140625 35.117188 15.445312 32.914062 15.210938 33.003906 C 12.144531 34.214844 9.277344 36.304688 6.710938 38.28125 C 9.15625 43.523438 10.144531 49.949219 10.316406 56.136719 C 13.117188 57.445312 15.578125 59.335938 19.375 59.53125 C 18.9375 56.421875 18.535156 53.648438 18.285156 50.71875 C 17.332031 50.316406 15.960938 50.738281 15.066406 50.59375 C 15.058594 49.519531 16.433594 50.125 16.546875 49.402344 C 16.632812 48.851562 15.792969 48.8125 16.066406 47.949219 C 16.761719 48.203125 17.128906 48.765625 17.875 48.972656 C 18.554688 47.484375 17.867188 44.851562 17.964844 43.609375 C 17.980469 43.375 18.082031 42.316406 18.605469 42.5 C 19.066406 42.664062 18.578125 45.320312 18.628906 46.5 C 18.675781 47.582031 18.496094 48.632812 18.9375 49.3125 C 22.609375 48.8125 26.339844 48.492188 30.3125 48.382812 C 29.4375 48.007812 28.398438 47.652344 27.261719 47.011719 C 26.644531 46.664062 24.699219 45.941406 24.519531 45.355469 C 24.238281 44.421875 25.265625 43.921875 25.441406 43.125 C 23.589844 44.132812 23.226562 42.15625 22.789062 40.753906 C 22.390625 39.484375 22.164062 38.535156 22.066406 37.800781 C 20.472656 37.042969 18.765625 36.269531 17.390625 35.296875 Z M 35.96875 33.269531 C 38.523438 32.03125 38.984375 37.902344 37.984375 39.792969 C 38.140625 40.355469 38.671875 40.570312 38.890625 41.078125 C 37.460938 43.632812 35.878906 46.015625 34.421875 48.542969 C 35.503906 47.867188 37.050781 48.421875 38.324219 47.917969 C 38.792969 47.734375 39.128906 46.667969 39.480469 45.816406 C 40.449219 43.46875 41.46875 40.511719 41.921875 38.273438 C 42.023438 37.761719 42.304688 36.652344 42.242188 36.199219 C 42.128906 35.386719 41.027344 34.78125 40.464844 34.28125 C 39.429688 33.351562 38.78125 32.535156 37.703125 31.667969 C 37.265625 32.3125 36.328125 32.746094 35.96875 33.269531 Z M 11.542969 10.609375 C 10.328125 11.949219 10.582031 14.460938 10.730469 16.246094 C 12.929688 14.863281 15.851562 16.355469 15.824219 18.710938 C 16.875 18.683594 16.21875 17.398438 16.027344 16.570312 C 15.40625 13.867188 17.074219 10.933594 16.105469 8.460938 C 14.21875 8.605469 12.667969 9.375 11.542969 10.609375 Z M 20.261719 2.835938 C 17.503906 3.617188 13.96875 5.621094 12.835938 8.097656 C 13.714844 7.96875 14.320312 7.527344 15.1875 7.472656 C 15.515625 7.449219 15.941406 7.609375 16.320312 7.515625 C 17.066406 7.328125 17.699219 5.648438 18.265625 5.027344 C 18.816406 4.414062 19.480469 4.15625 19.933594 3.597656 C 20.222656 3.457031 20.652344 3.46875 20.671875 3.03125 C 20.542969 2.894531 20.410156 2.792969 20.261719 2.835938 Z M 34.613281 3.570312 C 31.75 1.957031 26.90625 0.742188 23.863281 2.257812 C 21.40625 3.484375 18.085938 5.507812 16.953125 8.078125 C 18.011719 10.554688 16.640625 12.824219 16.554688 15.339844 C 16.507812 16.675781 17.183594 17.84375 17.234375 19.300781 C 16.875 19.898438 15.769531 19.972656 15.003906 19.929688 C 14.746094 18.644531 14.292969 17.195312 12.964844 17.046875 C 11.085938 16.84375 9.714844 18.398438 9.628906 20.023438 C 9.527344 21.929688 11.097656 25.097656 13.320312 24.878906 C 14.179688 24.792969 14.390625 23.933594 15.324219 23.941406 C 15.832031 24.953125 14.542969 25.269531 14.410156 25.992188 C 14.375 26.179688 14.515625 26.910156 14.597656 27.253906 C 15.003906 28.921875 15.902344 31.078125 16.789062 32.347656 C 17.914062 33.960938 20.121094 34.203125 22.5 34.359375 C 22.925781 33.445312 24.488281 33.519531 25.507812 33.761719 C 24.285156 33.277344 23.152344 32.105469 22.210938 31.066406 C 21.128906 29.875 20.035156 28.601562 19.980469 27.042969 C 22.019531 29.875 23.707031 32.351562 27.421875 33.597656 C 30.234375 34.539062 33.515625 33.164062 35.675781 31.648438 C 36.570312 31.019531 37.105469 30.019531 37.742188 29.105469 C 40.125 25.675781 41.238281 20.785156 40.992188 16.046875 C 40.890625 14.089844 40.894531 12.144531 40.238281 10.828125 C 39.554688 9.453125 37.234375 8.222656 35.875 9.464844 C 35.625 8.128906 37.003906 7.300781 38.628906 7.78125 C 37.472656 6.289062 36.257812 4.496094 34.613281 3.570312 Z M 39.945312 47.683594 C 42.183594 46.570312 46.359375 44.691406 47.761719 47.6875 C 48.28125 48.789062 48.886719 50.65625 49.15625 51.796875 C 49.535156 53.402344 48.746094 56.785156 47.089844 57.324219 C 45.632812 57.800781 43.925781 57.769531 42.167969 57.417969 C 41.960938 57.246094 41.730469 56.945312 41.570312 56.632812 C 40.3125 56.582031 39.136719 56.699219 38.144531 57.214844 C 38.238281 58.144531 37.609375 58.292969 37.019531 58.484375 C 36.585938 60.214844 37.894531 62.476562 37.582031 64.054688 C 37.355469 65.179688 35.972656 65.351562 34.957031 65.5625 C 34.921875 66.1875 35 66.710938 35.070312 67.238281 C 34.835938 68.09375 33.792969 68.582031 32.804688 68.703125 C 29.554688 69.09375 24.617188 69.269531 21.488281 68.144531 C 20.617188 66.003906 19.929688 63.402344 19.203125 60.957031 C 16.152344 61.28125 13.683594 59.640625 11.355469 58.566406 C 10.550781 58.191406 9.4375 57.988281 9.136719 57.347656 C 8.84375 56.726562 8.964844 55.535156 8.890625 54.414062 C 8.707031 51.542969 8.550781 48.777344 7.792969 45.839844 C 7.453125 44.523438 6.859375 43.359375 6.445312 42.089844 C 6.0625 40.914062 5.394531 39.457031 5.21875 38.285156 C 4.960938 36.542969 6.601562 36.449219 7.648438 35.695312 C 9.269531 34.527344 10.539062 33.882812 12.292969 32.832031 C 12.8125 32.519531 14.382812 31.730469 14.558594 31.367188 C 14.914062 30.648438 13.949219 29.632812 13.695312 29.066406 C 13.285156 28.175781 13.074219 27.417969 13.015625 26.535156 C 11.542969 26.304688 10.429688 25.429688 9.753906 24.441406 C 8.640625 22.808594 7.867188 19.785156 8.832031 17.484375 C 8.90625 17.304688 9.285156 16.949219 9.339844 16.671875 C 9.449219 16.121094 9.132812 15.394531 9.113281 14.8125 C 9.011719 11.824219 9.621094 9.25 11.632812 8.347656 C 12.449219 5.09375 15.375 4.011719 18.128906 2.394531 C 19.160156 1.792969 20.292969 1.40625 21.464844 0.972656 C 25.671875 -0.574219 32.125 -0.28125 35.617188 2.355469 C 37.09375 3.476562 39.460938 5.839844 40.308594 7.550781 C 42.542969 12.066406 42.382812 19.613281 40.820312 25.105469 C 40.609375 25.84375 40.304688 26.929688 39.878906 27.816406 C 39.582031 28.433594 38.660156 29.671875 38.773438 30.21875 C 38.886719 30.78125 40.875 32.289062 41.300781 32.703125 C 42.070312 33.441406 43.527344 34.421875 43.644531 35.359375 C 43.773438 36.351562 43.207031 37.710938 42.921875 38.667969 C 41.964844 41.871094 41.03125 44.828125 39.945312 47.683594 "/>
<path style=" stroke:none;fill-rule:evenodd;fill:rgb(96.862745%,89.411765%,80.392157%);fill-opacity:1;" d="M 25.023438 25.527344 C 25.148438 25.367188 25.8125 25.121094 26.746094 25.570312 C 26.746094 25.570312 25.640625 25.753906 25.734375 27.597656 L 25.273438 27.507812 C 25.273438 27.507812 24.796875 25.835938 25.023438 25.527344 "/>
<path style=" stroke:none;fill-rule:evenodd;fill:rgb(11.372549%,9.803922%,9.803922%);fill-opacity:1;" d="M 33.109375 41.375 C 33.109375 41.652344 32.878906 41.878906 32.601562 41.878906 C 32.320312 41.878906 32.09375 41.652344 32.09375 41.375 C 32.09375 41.09375 32.320312 40.867188 32.601562 40.867188 C 32.878906 40.867188 33.109375 41.09375 33.109375 41.375 "/>
<path style=" stroke:none;fill-rule:evenodd;fill:rgb(11.372549%,9.803922%,9.803922%);fill-opacity:1;" d="M 33.613281 43.722656 C 33.613281 44.003906 33.386719 44.230469 33.105469 44.230469 C 32.828125 44.230469 32.601562 44.003906 32.601562 43.722656 C 32.601562 43.445312 32.828125 43.214844 33.105469 43.214844 C 33.386719 43.214844 33.613281 43.445312 33.613281 43.722656 "/>
</g>
</svg>
